<svg xmlns="http://www.w3.org/2000/svg" viewBox="0 0 100 100">
  <path d="M61.4 65.8L36.1 91c-7.6 7.6-20 7.6-27.6 0-7.6-7.6-7.6-20 0-27.6l25.3-25.3 27.6 27.7M10.9 77c2.9 2.9 7.7 2.9 10.7 0 2.9-2.9 2.9-7.7 0-10.7-2.9-2.9-7.7-2.9-10.7 0C8 69.2 8 74 10.9 77m52.9-11.2l-30-30L7.3 62.2C-1 70.5-1 84 7.3 92.2c8.3 8.3 21.7 8.3 30 0l26.5-26.4zm-51.7 10c-2.3-2.3-2.3-6 0-8.3 2.3-2.3 6-2.3 8.3 0s2.3 6 0 8.3c-2.3 2.2-6 2.2-8.3 0zm79.7-68c-8.3-8.3-21.7-8.3-30 0L35.2 34.3l30 30 26.5-26.5c8.4-8.3 8.4-21.7.1-30zM80.2 16c-1.7-.2-4.8.3-8.3 3-3.3 2.5-5.8 5.5-5.9 5.5-1.7 2-4.7 2.3-6.6.6l-.3-.3c-1.7-1.7-1.9-4.5-.3-6.4 1.4-1.6 13.8-15.9 25.1-11 2.4 1 3.5 3.8 2.5 6.2-1 2.4-3.6 2.7-6.2 2.4z" fill="#fff"/>
</svg>
