<svg xmlns="http://www.w3.org/2000/svg" viewBox="0 0 270 125">
  <path d="M40.5 90.1l3.9 33h22L52.3 3H20.9L6.8 123.1h22l3.9-33h7.8zm-5.8-16.9l1.9-16.4 1.9 16.4h-3.8zM144.1 3h-22.8v120.1h22.8V3zM90.7 103.1l4.9 20.1h23.6l-14.7-60.1 14.7-60H95.6l-4.9 20.1V3.1H67.5v120h23.2v-20zm86.2 12.3v1.7c.2 2.3 1.2 4.4 2.8 5.9v.1h25.1v-.1c-1.5-1.5-2.6-3.6-2.8-5.9V60.2c-.3-2.2-1.3-4.2-2.7-5.6v-.1c1.5-1.4 2.5-3.4 2.7-5.7V9.5c-.1-2.4-.8-4.6-2-6.5h-51.2v120.1h25v-63c1.7.6 3 2.2 3.2 4.1v51.2h-.1zm-3.1-96.6V5.1c1.7.6 3 2.2 3.2 4.1V45h-3.2V18.8zm65.3 71.3l3.9 33h22L250.9 3h-31.5l-14.1 120.1h22l3.9-33h7.9zm-5.8-16.9l1.9-16.4 1.9 16.4h-3.8z" fill-rule="evenodd" clip-rule="evenodd" fill="#e30d1b"/>
</svg>
