<svg xmlns="http://www.w3.org/2000/svg" viewBox="0 0 397 132">
  <path d="M118.1 119.9l33.3-109.8h29.7l-33.3 109.8h-29.7zM104.8 10.2L78.1 56.7c-6.8 12.2-10.8 18.3-12.7 26H65c.5-9.8-.9-21.7-1-28.5l-3-44H11l-.5 3c12.8 0 20.5 6.5 22.6 19.7l9.7 87.1h30.8l62.2-109.7h-31v-.1zm231 109.7l-.8-16.3h-37.1l-7.6 16.4H258l58.5-109.5h39.6L366 120h-30.2v-.1zm-3.5-64.8c-.3-8.1-.6-19.1-.1-25.8h-.4c-1.8 5.5-9.6 21.8-13 29.9l-11.1 24.1h26l-1.4-28.2zM212.2 123c-21 0-34.9-6.6-44.8-12.6l14.1-21.6c8.9 5 15.9 10.7 32 10.7 5.2 0 10.2-1.3 13-6.3 4.1-7.1-1-11-12.6-17.5l-5.7-3.7c-17.2-11.8-24.6-22.9-16.5-42.4 5.2-12.5 18.8-21.9 41.4-21.9 15.5 0 30.1 6.7 38.6 13.3l-16.3 19.1c-8.3-6.7-15.2-10.1-23-10.1-6.3 0-11 2.4-12.7 5.7-3.1 6.1 1 10.3 10 15.9l6.8 4.3c20.9 13.2 25.9 27 20.6 39.9-8.8 22.2-26.4 27.2-44.9 27.2zm161.9-95.9h-2V15.2h4.5c2.9 0 4.3 1 4.3 3.4 0 2.2-1.3 3-3.1 3.2l3.3 5.2H379l-3.1-5.1h-1.8v5.2zm2.2-6.7c1.5 0 2.8-.1 2.8-1.9 0-1.4-1.4-1.6-2.6-1.6h-2.4v3.5h2.2zm-.1 11.3c-6.2 0-10.6-4.6-10.6-10.7 0-6.5 4.9-10.7 10.6-10.7 5.6 0 10.5 4.3 10.5 10.7 0 6.4-4.9 10.7-10.5 10.7zm0-19.6c-4.7 0-8.3 3.6-8.3 8.9 0 4.9 3.2 8.9 8.3 8.9 4.6 0 8.2-3.6 8.2-8.9 0-5.3-3.6-8.9-8.2-8.9z" fill-rule="evenodd" clip-rule="evenodd" fill="#fff"/>
</svg>
